<svg width="297" height="50" viewBox="0 0 297 50" fill="none" 
    xmlns="http://www.w3.org/2000/svg" id="logo">
    <path d="M66.7689 10.7189C67.0582 16.0893 63.4983 20.6926 58.5591 22.0735C58.4924 22.1174 58.4479 22.1393 58.4034 22.1612C53.5754 23.4326 50.0155 27.7728 50.0155 32.9459C50.0155 32.9898 49.971 33.0556 49.9265 33.1213C49.2368 38.6233 44.4533 42.8758 38.6909 42.8758H38.4684C32.7059 42.8758 27.9224 38.6233 27.2327 33.1213C27.166 33.0336 27.1437 32.9898 27.1437 32.9459C27.1437 27.7947 23.5839 23.4326 18.7559 22.1612C18.7114 22.1393 18.6669 22.1174 18.6002 22.0735C13.6609 20.6926 10.1011 16.0893 10.3903 10.7189C10.6796 5.15112 15.2183 0.591719 20.8695 0.197155C27.4997 -0.263169 33.0174 4.91 33.0174 11.3326C33.0174 11.3984 33.0174 11.4861 33.0174 11.5518C33.3289 13.9411 34.3968 16.1551 36.0433 17.8648C37.4227 19.2897 39.7143 19.2897 41.0938 17.8648C42.7402 16.1551 43.8304 13.9411 44.1196 11.5518C44.1196 11.4861 44.1196 11.3984 44.1196 11.3326C44.1196 4.91 49.6373 -0.263169 56.2675 0.197155C61.8964 0.591719 66.4574 5.15112 66.7689 10.7189Z" fill="#00B8C2"/>
    <path d="M65.5453 49.8684C71.7997 49.8684 76.8699 44.8731 76.8699 38.711C76.8699 32.549 71.7997 27.5537 65.5453 27.5537C59.2908 27.5537 54.2206 32.549 54.2206 38.711C54.2206 44.8731 59.2908 49.8684 65.5453 49.8684Z" fill="#FDB515"/>
    <path d="M11.3247 49.978C17.5791 49.978 22.6493 44.9827 22.6493 38.8206C22.6493 32.6586 17.5791 27.6632 11.3247 27.6632C5.07023 27.6632 0 32.6586 0 38.8206C0 44.9827 5.07023 49.978 11.3247 49.978Z" fill="#FDB515"/>
    <path d="M241.912 9.33801C244.529 9.33801 246.651 7.24762 246.651 4.669C246.651 2.09038 244.529 0 241.912 0C239.295 0 237.173 2.09038 237.173 4.669C237.173 7.24762 239.295 9.33801 241.912 9.33801Z" fill="#063A4F"/>
    <path d="M115.449 39.9387H107.395C106.927 39.9387 106.549 39.5661 106.549 39.1057C106.549 39.0838 106.549 39.0619 106.549 39.0181C106.549 33.9326 106.549 28.869 106.527 23.7835C106.505 21.6134 105.37 20.0351 103.523 19.531C100.787 18.7857 98.4283 20.2982 98.05 23.0601C97.9611 23.7177 97.9166 24.3753 97.9166 25.033C97.8943 29.6581 97.9166 34.2833 97.9166 38.9085V39.0619C97.9166 39.5222 97.5383 39.8949 97.0711 39.8949H89.1505C88.6833 39.8949 88.3051 39.5222 88.3051 39.0619V12.2973C88.3051 11.837 88.6833 11.4643 89.1505 11.4643H96.0699C96.5371 11.4643 96.9154 11.837 96.9154 12.2973C96.9154 12.9988 97.7163 13.3714 98.2948 12.9549C100.408 11.3328 102.834 10.7629 105.481 10.7848C108.463 10.7848 111.066 11.5959 113.068 13.8098C113.402 14.1825 113.98 14.1605 114.314 13.8098C115.894 12.2096 117.852 11.3547 120.099 11.0259C124.192 10.4122 128.041 10.8067 131.223 13.766C133.225 15.6292 134.36 17.9966 134.538 20.6489C134.761 23.8712 134.716 27.1154 134.738 30.3376C134.761 33.2311 134.738 36.1465 134.738 39.0838C134.738 39.5441 134.36 39.9168 133.893 39.9168H125.839C125.372 39.9168 124.993 39.5441 124.993 39.0838C124.993 39.0619 124.993 39.04 124.993 39.0181C124.993 33.9106 125.06 28.8032 124.949 23.7177C124.815 20.0351 121.923 18.8295 119.075 19.6406C117.34 20.1447 116.316 21.8545 116.294 24.1781C116.272 29.132 116.294 34.0641 116.294 39.0181C116.294 39.0619 116.294 39.0838 116.294 39.1277C116.294 39.5661 115.916 39.9387 115.449 39.9387Z" fill="#063A4F"/>
    <path d="M166.132 15.5414C162.839 11.9027 158.545 10.4779 153.695 10.4779C153.138 10.4779 152.582 10.4559 152.004 10.4779C151.603 10.4998 151.203 10.5655 150.824 10.6313C146.486 11.3328 142.815 13.174 140.301 16.8128C137.831 20.3858 137.164 24.3972 137.92 28.6278C138.654 32.683 140.701 35.9711 144.239 38.2727C147.643 40.4866 151.425 41.1881 155.452 40.8593C158.723 40.5743 161.726 39.5221 164.33 37.4836C167.711 34.8312 169.425 31.2582 169.803 27.0934C170.159 22.7751 169.091 18.8295 166.132 15.5414ZM153.739 32.5515C149.801 32.5515 147.109 29.7457 147.109 25.6466C147.109 21.5914 149.779 18.8295 153.739 18.8295C157.699 18.8295 160.391 21.6133 160.391 25.6466C160.391 29.7238 157.677 32.5296 153.739 32.5515Z" fill="#063A4F"/>
    <path d="M201.24 39.9386H192.83C192.474 39.9386 192.207 39.6536 192.207 39.3248V39.0179C192.207 34.3051 192.229 29.5922 192.185 24.9013C192.185 24.0903 192.096 23.2573 191.895 22.4901C191.295 20.2323 189.448 19.1363 186.711 19.3117C184.576 19.4432 182.929 20.9338 182.64 23.0819C182.551 23.7396 182.506 24.3972 182.506 25.0548C182.484 29.6799 182.506 34.3051 182.506 38.9303V39.3029C182.506 39.6536 182.217 39.9167 181.883 39.9167H173.518C173.162 39.9167 172.895 39.6317 172.895 39.3029V12.0999C172.895 11.7492 173.184 11.4862 173.518 11.4862H181.394C181.75 11.4862 182.017 11.7711 182.017 12.0999V12.4945C182.017 13.0206 182.662 13.3055 183.063 12.9548C183.307 12.7356 183.574 12.5383 183.841 12.363C190.471 7.97892 199.972 11.8369 201.529 19.5528C201.752 20.6926 201.885 21.8983 201.885 23.06C201.93 28.4743 201.907 33.8886 201.907 39.3029C201.885 39.6755 201.596 39.9386 201.24 39.9386Z" fill="#063A4F"/>
    <path d="M213.922 39.9387H205.512C205.178 39.9387 204.911 39.6757 204.911 39.3469V12.0562C204.911 11.7274 205.178 11.4643 205.512 11.4643H213.433C213.766 11.4643 214.033 11.7274 214.033 12.0562V12.5384C214.033 13.0426 214.656 13.3276 215.034 12.9988C215.301 12.7796 215.568 12.5604 215.835 12.385C222.466 8.00096 231.966 11.8589 233.523 19.5748C233.746 20.7147 233.879 21.9203 233.879 23.0821C233.924 28.4964 233.902 33.9106 233.902 39.3249C233.902 39.6537 233.612 39.9168 233.301 39.9168H224.846C224.513 39.9168 224.246 39.6537 224.246 39.3249C224.246 39.2373 224.246 39.1277 224.246 39.04C224.246 34.3271 224.268 29.6143 224.223 24.9234C224.223 24.1123 224.134 23.2793 223.934 22.5121C223.333 20.2544 221.487 19.1583 218.75 19.3337C216.614 19.4652 214.968 20.9558 214.679 23.104C214.59 23.7616 214.545 24.4192 214.545 25.0768C214.523 29.702 214.545 34.3271 214.545 38.9523V39.3688C214.523 39.6537 214.256 39.9387 213.922 39.9387Z" fill="#063A4F"/>
    <path d="M296.999 11.4204C296.888 11.7273 296.821 11.9684 296.732 12.1876C291.593 24.7918 286.431 37.374 281.292 50H271.458C272.637 46.9531 273.816 43.9281 275.017 40.9031C275.24 40.377 275.218 39.9386 274.995 39.4345C272.036 32.7926 269.077 26.1508 266.118 19.509H264.382C264.004 19.509 263.693 19.8159 263.693 20.1885V39.2153C263.693 39.5879 263.381 39.8948 263.003 39.8948H254.637C254.259 39.8948 253.948 39.5879 253.948 39.2153V20.2104C253.948 19.8378 253.636 19.5309 253.258 19.5309H250.232C249.854 19.5309 249.542 19.224 249.542 18.8514V12.1C249.542 11.7273 249.854 11.4204 250.232 11.4204H253.903C253.903 11.4862 253.903 11.5081 253.925 11.4204V11.3547C253.925 11.267 253.948 11.1574 253.948 10.982C254.037 9.66682 254.148 8.28585 254.548 7.0364C255.728 3.37573 258.531 1.46867 262.18 0.61378C264.293 0.109616 268.209 0.0657753 270.345 0.438419C270.501 0.460339 270.901 0.504179 271.28 0.54802C271.636 0.59186 271.903 0.876823 271.903 1.22755V7.49672C271.903 7.86937 271.591 8.17625 271.213 8.17625C269.922 8.17625 267.608 8.17625 266.941 8.17625C264.894 8.17625 263.782 9.22842 263.715 11.1793C263.715 11.1574 263.715 11.1355 263.715 11.1136C263.715 10.3025 263.715 11.004 263.715 11.4424C263.715 11.7054 263.715 11.8588 263.715 11.4424C266.63 11.4424 269.477 11.4424 272.325 11.4643C272.414 11.4643 272.503 11.4643 272.57 11.4643H272.703C272.904 11.4643 273.193 11.7931 273.282 12.0342C275.418 17.0978 277.531 22.1613 279.667 27.2249C279.779 27.5099 279.912 27.7948 280.09 28.2113C281.002 25.9316 281.87 23.7834 282.715 21.6133C283.961 18.4568 285.23 15.3222 286.431 12.1657C286.654 11.5958 286.92 11.4424 287.543 11.4424C290.636 11.4424 293.751 11.4204 296.999 11.4204Z" fill="#063A4F"/>
    <path d="M253.927 11.3328C253.927 11.3547 253.927 11.3766 253.927 11.3985H253.904C253.881 11.1574 253.927 10.3902 253.927 11.3328Z" fill="#063A4F"/>
    <path d="M272.303 11.4424C269.455 11.4205 266.607 11.4205 263.693 11.4205C263.693 11.837 263.693 11.6835 263.693 11.4205C263.693 11.004 263.693 10.3026 263.693 11.0917C263.693 11.1136 263.693 11.1355 263.693 11.1575C263.693 11.2232 263.715 11.289 263.737 11.3986H272.08C272.147 11.3986 272.236 11.4205 272.303 11.4424Z" fill="#063A4F"/>
    <path d="M246.517 12.2096V39.1715C246.517 39.588 246.183 39.9168 245.76 39.9168H237.706C237.283 39.9168 236.95 39.588 236.95 39.1715V12.2096C236.95 11.7931 237.283 11.4643 237.706 11.4643H245.76C246.183 11.4643 246.517 11.7931 246.517 12.2096Z" fill="#063A4F"/>
</svg>
